HIERARCHY
ROOT Hips
{
    OFFSET 0.000000 0.000000 0.000000
    CHANNELS 6 Xposition Yposition Zposition Zrotation Xrotation Yrotation
        JOINT Chest
        {
            OFFSET -0.000000 31.780966 -0.000000
            CHANNELS 3 Zrotation Xrotation Yrotation
            JOINT Neck
            {
                OFFSET -0.000000 23.880144 0.000000
                CHANNELS 3 Zrotation Xrotation Yrotation
                JOINT Head
                {
                    OFFSET -0.000000 10.511110 0.000000
                    CHANNELS 3 Zrotation Xrotation Yrotation
                    End Site
                    {
                        OFFSET -0.000000 16.244448 0.000000
                    }
                }
            }
            JOINT LeftCollar
            {
                OFFSET -0.000000 23.880144 0.000000
                CHANNELS 3 Zrotation Xrotation Yrotation
                JOINT LeftShoulder
                {
                    OFFSET 19.111111 -0.000000 0.000000
                    CHANNELS 3 Zrotation Xrotation Yrotation
                    JOINT LeftElbow
                    {
                        OFFSET 21.456259 0.000000 0.000000
                        CHANNELS 3 Zrotation Xrotation Yrotation
                        JOINT LeftWrist
                        {
                            OFFSET 25.693237 0.000000 0.000000
                            CHANNELS 3 Zrotation Xrotation Yrotation
                            End Site
                            {
                                OFFSET 0.000000 -14.333333 0.000000
                            }
                        }
                    }
                }
            }
            JOINT RightCollar
            {
                OFFSET -0.000000 23.880144 0.000000
                CHANNELS 3 Zrotation Xrotation Yrotation
                JOINT RightShoulder
                {
                    OFFSET -19.111111 0.000000 0.000000
                    CHANNELS 3 Zrotation Xrotation Yrotation
                    JOINT RightElbow
                    {
                        OFFSET -21.456259 0.000000 0.000000
                        CHANNELS 3 Zrotation Xrotation Yrotation
                        JOINT RightWrist
                        {
                            OFFSET -25.693237 0.000000 0.000000
                            CHANNELS 3 Zrotation Xrotation Yrotation
                            End Site
                            {
                                OFFSET -0.000000 -14.333333 0.000000
                            }
                        }
                    }
                }
            }
        }
    JOINT LeftHip
    {
        OFFSET 11.466667 0.000000 0.000000
        CHANNELS 3 Zrotation Xrotation Yrotation
        JOINT LeftKnee
        {
            OFFSET -0.000000 -37.225342 0.000000
            CHANNELS 3 Zrotation Xrotation Yrotation
            JOINT LeftAnkle
            {
                OFFSET -0.000000 -35.678333 0.000000
                CHANNELS 3 Zrotation Xrotation Yrotation
                End Site
                {
                    OFFSET -0.000000 -4.777778 16.244448
                }
            }
        }
    }
    JOINT RightHip
    {
        OFFSET -11.466667 0.000000 0.000000
        CHANNELS 3 Zrotation Xrotation Yrotation
        JOINT RightKnee
        {
            OFFSET -0.000000 -37.225342 0.000000
            CHANNELS 3 Zrotation Xrotation Yrotation
            JOINT RightAnkle
            {
                OFFSET -0.000000 -35.678333 0.000000
                CHANNELS 3 Zrotation Xrotation Yrotation
                End Site
                {
                    OFFSET -0.000000 -4.777778 16.244448
                }
            }
        }
    }
}
MOTION
Frames:    8
Frame Time:    0.010000
12.529757    83.297234    -49.530487    2.861404    -4.181929    -9.363215    2.521948    9.363425    -8.045779    6.442682    -1.473713    3.047707    -8.552392    7.233467    3.499617    -15.732949    -1.007139    7.481405    -44.800259    54.595676    -19.568716    11.447804    -8.922145    -75.913200    118.566818    -5.484371    9.318405    20.609467    -0.975658    -5.208846    39.096386    23.189737    8.254417    20.205420    14.069510    69.515518    -91.524551    -14.309061    39.088562    11.950253    -14.808399    6.552080    -11.635724    39.481461    13.396742    -6.162253    -6.173341    8.749477    0.390591    4.219792    7.314811    -0.797393    6.416890    -8.455931    -2.783457    -5.456525    -22.561255    
12.639750    83.313583    -49.552925    2.917445    -4.145236    -9.376611    2.587906    9.288624    -8.039726    4.006515    -0.350349    4.795491    -7.130870    6.179502    5.181031    -16.413424    -1.328344    10.615768    -44.975033    54.022987    -19.699425    11.693885    -9.258703    -75.754257    118.236839    -5.483131    8.843114    20.270355    -0.600805    -1.369290    38.950813    23.694590    6.935300    20.665537    14.568269    69.217415    -91.773445    -14.318128    38.744640    12.544758    -15.728680    6.649656    -12.794230    40.962109    13.603130    -7.366055    -5.939120    7.098774    0.234058    4.245529    7.658721    -0.754313    6.185713    -9.013504    -2.698870    -5.331311    -22.310621    
12.758367    83.323051    -49.549019    2.970201    -4.148468    -9.490197    2.503694    9.272325    -7.962868    4.016083    -0.347433    4.756028    -7.089314    5.995293    5.115359    -16.406439    -1.442667    10.702793    -44.912724    54.225533    -19.755596    11.818968    -9.275849    -75.553749    118.008385    -5.544234    8.503352    20.299877    -0.412724    -1.269635    38.768894    23.614590    7.021247    20.635015    14.393040    69.399765    -91.317429    -14.185265    38.473003    12.999067    -16.394062    6.650274    -13.914379    42.190010    13.748421    -5.261760    -6.429442    5.921027    0.076580    4.192606    7.518195    -0.771200    6.154356    -9.228519    -2.598165    -5.274642    -21.862419    
12.847415    83.343445    -49.557461    3.011070    -4.137500    -9.566032    2.458030    9.281222    -7.911858    4.034077    -0.446523    4.700760    -7.062054    6.052079    5.057991    -16.390980    -1.506518    10.700684    -44.883972    54.351688    -19.835278    11.902116    -9.277096    -75.418129    117.913376    -5.537482    8.230864    20.300648    -0.317845    -1.272971    38.639786    23.541960    7.107440    20.571762    14.342270    69.521477    -91.143906    -14.097980    38.157173    13.374830    -16.951641    6.727490    -14.764091    43.160259    13.935676    -5.358120    -6.537498    5.399510    -0.041025    4.166557    7.541521    -0.774766    6.085022    -9.438687    -2.516397    -5.219028    -21.605242    
12.951517    83.369545    -49.565575    3.059420    -4.124942    -9.672443    2.399027    9.292192    -7.837926    4.041175    -0.549463    4.652411    -7.027963    6.105530    5.008179    -16.381470    -1.549739    10.719520    -44.829769    54.465057    -19.963930    11.995329    -9.325999    -75.257347    117.742439    -5.593276    7.901168    20.300756    -0.261881    -1.255252    38.508247    23.526588    7.150765    20.529266    14.329888    69.610947    -91.070740    -14.039799    37.713318    13.796298    -17.568035    6.843777    -15.737542    44.241539    14.208195    -5.534934    -6.656232    4.945183    -0.176822    4.128023    7.546703    -0.786921    6.021248    -9.615223    -2.418440    -5.162436    -21.336025    
13.069956    83.400414    -49.571495    3.115418    -4.112052    -9.814503    2.323759    9.308191    -7.737852    4.046948    -0.660726    4.603243    -6.991241    6.151719    4.955239    -16.370495    -1.582534    10.741712    -44.769184    54.570816    -20.113327    12.105513    -9.390935    -75.074486    117.533508    -5.693892    7.592918    20.301504    -0.242110    -1.237485    38.371021    23.569420    7.179554    20.462353    14.305561    69.711990    -90.977058    -13.970327    37.207264    14.252138    -18.221457    7.001493    -16.818764    45.398956    14.593112    -5.760829    -6.776924    4.585301    -0.329909    4.076847    7.528047    -0.809954    5.967755    -9.729027    -2.303632    -5.108099    -21.073601    
13.201921    83.434990    -49.573593    3.178721    -4.100066    -9.995404    2.230334    9.331997    -7.610219    4.047218    -0.777127    4.554131    -6.947368    6.181731    4.901644    -16.368511    -1.541886    10.768245    -44.652756    54.608021    -20.325134    12.162136    -9.370138    -74.889610    117.393639    -5.801941    7.391095    20.302954    -0.207869    -1.215465    38.227158    23.613419    7.208566    20.418070    14.317053    69.779457    -90.930840    -13.914639    36.631241    14.729912    -18.888798    7.196617    -17.988441    46.592480    15.115621    -6.004688    -6.890945    4.339885    -0.498979    4.013204    7.480151    -0.845388    5.928562    -9.756019    -2.171142    -5.059162    -20.833849    
13.346394    83.472145    -49.570457    3.248524    -4.090684    -10.216228    2.117653    9.366605    -7.455553    4.038254    -0.894883    4.507210    -6.891400    6.185755    4.847641    -16.347876    -1.566436    10.799769    -44.590736    54.704346    -20.507441    12.332087    -9.534173    -74.667137    117.048286    -6.033199    7.268709    20.302130    -0.235834    -1.185226    38.091873    23.727913    7.224952    20.330233    14.237044    69.907433    -90.850784    -13.841380    36.027122    15.216940    -19.546961    7.420757    -19.222685    47.780952    15.793625    -6.245709    -6.991191    4.218518    -0.682451    3.938712    7.400223    -0.893852    5.905408    -9.683542    -2.019901    -5.017725    -20.626038    
